<mxfile host="app.diagrams.net" modified="2023-04-28T08:54:57.210Z" agent="Mozilla/5.0 (Windows NT 10.0; Win64; x64) AppleWebKit/537.36 (KHTML, like Gecko) Chrome/112.0.0.0 Safari/537.36" version="21.2.3" etag="slL4fCkY-6YPfGFCZ26u" type="github">
  <diagram name="페이지-1" id="HZNDLTpKuRLXYJzicP04">
    <mxGraphModel>
      <root>
        <mxCell id="0" />
        <mxCell id="1" parent="0" />
      </root>
    </mxGraphModel>
  </diagram>
</mxfile>
